<svg width="147" height="30" viewBox="0 0 147 30" fill="none" xmlns="http://www.w3.org/2000/svg">
<g clip-path="url(#clip0_309_13254)">
<path d="M25.747 7.94379V15.8876C22.0498 17.6849 17.8435 17.1302 14.4342 14.2677C10.1836 10.6953 4.87032 9.65237 0.0219727 11.1834V0H6.86279C8.30179 5.56953 13.3272 9.67456 19.3268 9.67456C21.6735 9.67456 23.8652 9.05325 25.7691 7.94379H25.747Z" fill="black"/>
<path d="M21.3194 21.7459C22.8027 21.7459 24.3081 21.524 25.7471 21.058V29.024H13.9252C12.5968 25.274 9.03253 22.5669 4.82621 22.5669C3.05512 22.5669 1.41687 23.0328 0 23.8539V16.3539C3.69714 14.5565 7.90346 15.1113 11.3128 17.9737C14.3015 20.4811 17.7994 21.7459 21.3194 21.7459Z" fill="black"/>
<path d="M37.8126 7.38874C37.4584 7.03371 37.2812 6.61211 37.2812 6.10175C37.2812 5.5914 37.4584 5.14761 37.8126 4.81477C38.1668 4.48193 38.5874 4.28223 39.0966 4.28223C39.6058 4.28223 40.0264 4.45974 40.3585 4.81477C40.6906 5.1698 40.8898 5.5914 40.8898 6.10175C40.8898 6.61211 40.7127 7.0559 40.3585 7.38874C40.0043 7.74377 39.5837 7.92128 39.0966 7.92128C38.6096 7.92128 38.1447 7.74377 37.8126 7.38874ZM40.4913 9.74081V23.4538H37.6576V9.74081H40.4913Z" fill="black"/>
<path d="M54.0178 10.1845C54.8812 10.6283 55.5454 11.294 56.0103 12.1815C56.4973 13.0691 56.7409 14.112 56.7409 15.3768V23.4759H53.9293V15.7984C53.9293 14.578 53.6193 13.6239 52.9995 12.9804C52.3796 12.3147 51.5604 12.004 50.4978 12.004C49.4351 12.004 48.5939 12.3369 47.974 12.9804C47.3541 13.646 47.0442 14.578 47.0442 15.7984V23.4759H44.2104V9.76291H47.0442V11.3384C47.5091 10.7836 48.1068 10.3398 48.8153 10.007C49.5458 9.69634 50.2986 9.54102 51.1177 9.54102C52.2025 9.54102 53.1544 9.76291 54.0178 10.2067V10.1845Z" fill="black"/>
<path d="M60.2389 12.8701C60.8145 11.805 61.6115 10.984 62.6077 10.3849C63.6261 9.80799 64.7773 9.51953 66.0835 9.51953C67.7439 9.51953 69.1164 9.91894 70.2012 10.6956C71.286 11.4722 72.0166 12.6039 72.393 14.0683H69.3378C69.0943 13.3805 68.6958 12.8479 68.1424 12.4707C67.5889 12.0935 66.9026 11.8938 66.0835 11.8938C64.9323 11.8938 64.0024 12.3154 63.3162 13.1364C62.6299 13.9574 62.2978 15.1112 62.2978 16.5757C62.2978 18.0402 62.6299 19.2163 63.3162 20.0373C64.0024 20.8583 64.9323 21.2799 66.0835 21.2799C67.7217 21.2799 68.8065 20.5476 69.3378 19.1053H72.393C71.9945 20.5033 71.2418 21.6127 70.157 22.4337C69.0722 23.2547 67.6996 23.6763 66.0835 23.6763C64.7773 23.6763 63.604 23.3879 62.6077 22.7888C61.5893 22.2118 60.8145 21.3686 60.2389 20.3036C59.6633 19.2385 59.3755 17.9959 59.3755 16.5757C59.3755 15.1556 59.6633 13.9352 60.2389 12.8479V12.8701Z" fill="black"/>
<path d="M78.0828 5.03711V23.4765H75.249V5.03711H78.0828Z" fill="black"/>
<path d="M86.6058 10.163C87.4249 9.74142 88.3769 9.51953 89.4174 9.51953C90.6129 9.51953 91.6977 9.80799 92.6939 10.4071C93.668 10.984 94.465 11.8272 95.0185 12.8923C95.5719 13.9574 95.8597 15.1778 95.8597 16.5536C95.8597 17.9293 95.5719 19.1719 95.0185 20.2592C94.4429 21.3465 93.6902 22.1896 92.6939 22.811C91.7198 23.4101 90.6129 23.7207 89.4174 23.7207C88.3769 23.7207 87.4471 23.4988 86.628 23.0994C85.8088 22.6778 85.1447 22.1453 84.6355 21.524V30.0447H81.8018V9.74142H84.6355V11.7607C85.1225 11.1394 85.7646 10.6068 86.6058 10.163ZM92.384 14.0905C91.9855 13.4027 91.4763 12.8701 90.8564 12.5151C90.2144 12.1601 89.5281 11.9825 88.7975 11.9825C88.067 11.9825 87.4028 12.1601 86.7608 12.5373C86.1188 12.9145 85.6096 13.4249 85.2332 14.1349C84.8569 14.8228 84.6576 15.666 84.6576 16.5979C84.6576 17.5299 84.8569 18.3731 85.2332 19.0831C85.6096 19.7932 86.1409 20.3257 86.7608 20.6808C87.4028 21.058 88.067 21.2355 88.7975 21.2355C89.5281 21.2355 90.2144 21.058 90.8564 20.6808C91.4984 20.3036 92.0076 19.771 92.384 19.0388C92.7603 18.3287 92.9596 17.5077 92.9596 16.5536C92.9596 15.5994 92.7603 14.7784 92.384 14.1127V14.0905Z" fill="black"/>
<path d="M103.144 10.0965C103.83 9.71924 104.649 9.51953 105.579 9.51953V12.4707H104.848C103.741 12.4707 102.9 12.7592 102.325 13.3139C101.749 13.8908 101.461 14.845 101.461 16.2651V23.4766H98.6274V9.76361H101.461V11.7607C101.882 11.0728 102.435 10.5181 103.122 10.1186L103.144 10.0965Z" fill="black"/>
<path d="M120.633 17.663H110.161C110.25 18.7503 110.648 19.6379 111.379 20.3036C112.109 20.9692 112.995 21.3021 114.058 21.3021C115.585 21.3021 116.648 20.6586 117.29 19.3938H120.345C119.924 20.6586 119.172 21.6793 118.109 22.5003C117.024 23.2991 115.674 23.6985 114.058 23.6985C112.751 23.6985 111.578 23.4101 110.538 22.811C109.497 22.234 108.7 21.3908 108.102 20.3257C107.527 19.2607 107.217 18.0181 107.217 16.5979C107.217 15.1778 107.505 13.9574 108.08 12.8701C108.656 11.805 109.453 10.984 110.493 10.3849C111.534 9.80799 112.729 9.51953 114.058 9.51953C115.386 9.51953 116.493 9.80799 117.511 10.3627C118.53 10.9396 119.304 11.7163 119.88 12.737C120.434 13.7577 120.721 14.9337 120.721 16.2651C120.721 16.7754 120.699 17.2414 120.633 17.663ZM117.777 15.3775C117.777 14.3346 117.401 13.4914 116.648 12.8701C115.917 12.2488 115.01 11.916 113.947 11.916C112.973 11.916 112.132 12.2266 111.445 12.8479C110.759 13.4692 110.338 14.3124 110.205 15.3775H117.777Z" fill="black"/>
<path d="M125.592 23.0991C124.729 22.7219 124.064 22.1672 123.555 21.5015C123.068 20.8358 122.803 20.0814 122.758 19.2604H125.703C125.747 19.8373 126.035 20.3255 126.522 20.7249C127.031 21.1243 127.651 21.3018 128.426 21.3018C129.201 21.3018 129.843 21.1465 130.285 20.8358C130.728 20.5252 130.95 20.1258 130.95 19.6598C130.95 19.1494 130.706 18.7722 130.219 18.5059C129.732 18.2619 128.957 17.9734 127.894 17.6849C126.854 17.3965 126.035 17.1302 125.393 16.8639C124.751 16.5977 124.197 16.1983 123.71 15.6435C123.245 15.0888 123.002 14.3787 123.002 13.469C123.002 12.7367 123.223 12.071 123.644 11.4719C124.064 10.8728 124.684 10.3846 125.503 10.0296C126.3 9.67458 127.23 9.49707 128.271 9.49707C129.82 9.49707 131.082 9.89648 132.034 10.6731C132.986 11.4497 133.496 12.537 133.562 13.8906H130.728C130.684 13.2693 130.44 12.7811 129.975 12.4261C129.533 12.0488 128.913 11.8713 128.16 11.8713C127.407 11.8713 126.832 12.0045 126.455 12.2929C126.057 12.5814 125.858 12.9586 125.858 13.4246C125.858 13.8018 125.991 14.0903 126.256 14.3565C126.522 14.6006 126.832 14.8003 127.23 14.9335C127.607 15.0666 128.182 15.2663 128.913 15.466C129.909 15.7323 130.728 15.9985 131.348 16.287C131.99 16.5533 132.544 16.9749 133.008 17.4852C133.473 18.0178 133.717 18.7278 133.739 19.5932C133.739 20.3699 133.518 21.0799 133.097 21.679C132.676 22.3003 132.056 22.7663 131.26 23.1213C130.485 23.4764 129.555 23.6539 128.492 23.6539C127.43 23.6539 126.455 23.4542 125.592 23.077V23.0991Z" fill="black"/>
<path d="M138.853 23.0991C137.989 22.7219 137.325 22.1672 136.816 21.5015C136.329 20.8358 136.063 20.0814 136.019 19.2604H138.963C139.008 19.8373 139.296 20.3255 139.783 20.7249C140.292 21.1243 140.912 21.3018 141.687 21.3018C142.461 21.3018 143.103 21.1465 143.546 20.8358C143.989 20.5252 144.21 20.1258 144.21 19.6598C144.21 19.1494 143.967 18.7722 143.48 18.5059C142.993 18.2619 142.218 17.9734 141.155 17.6849C140.115 17.3965 139.296 17.1302 138.654 16.8639C138.012 16.5977 137.458 16.1983 136.971 15.6435C136.506 15.0888 136.263 14.3787 136.263 13.469C136.263 12.7367 136.484 12.071 136.905 11.4719C137.325 10.8728 137.945 10.3846 138.764 10.0296C139.561 9.67458 140.491 9.49707 141.532 9.49707C143.081 9.49707 144.343 9.89648 145.295 10.6731C146.247 11.4497 146.756 12.537 146.823 13.8906H143.989C143.945 13.2693 143.701 12.7811 143.236 12.4261C142.793 12.0488 142.174 11.8713 141.421 11.8713C140.668 11.8713 140.093 12.0045 139.716 12.2929C139.318 12.5814 139.118 12.9586 139.118 13.4246C139.118 13.8018 139.251 14.0903 139.517 14.3565C139.783 14.6006 140.093 14.8003 140.491 14.9335C140.867 15.0666 141.443 15.2663 142.174 15.466C143.17 15.7323 143.989 15.9985 144.609 16.287C145.251 16.5533 145.804 16.9749 146.269 17.4852C146.734 18.0178 146.978 18.7278 147 19.5932C147 20.3699 146.778 21.0799 146.358 21.679C145.937 22.3003 145.317 22.7663 144.52 23.1213C143.745 23.4764 142.816 23.6539 141.753 23.6539C140.69 23.6539 139.716 23.4542 138.853 23.077V23.0991Z" fill="black"/>
</g>
<defs>
<clipPath id="clip0_309_13254">
<rect width="147" height="30" fill="white"/>
</clipPath>
</defs>
</svg>
