<svg width="345" height="560" viewBox="0 0 345 560" fill="none" xmlns="http://www.w3.org/2000/svg">
<path d="M90.4291 36.6719C90.3197 35.625 89.3978 35.0156 88.1009 35.0156C86.7103 35.0156 85.8353 35.7188 85.8353 36.6875C85.8353 37.7656 87.0072 38.1719 87.8978 38.3906L88.9916 38.6875C90.4447 39.0312 92.2416 39.8281 92.2572 41.875C92.2416 43.7812 90.7259 45.1875 88.0541 45.1875C85.5228 45.1875 83.9291 43.9219 83.8197 41.8594H85.5384C85.6478 43.0938 86.7259 43.6875 88.0541 43.6875C89.4916 43.6875 90.5384 42.9531 90.5541 41.8438C90.5384 40.8594 89.6166 40.4531 88.4134 40.1406L87.0697 39.7812C85.2572 39.2812 84.1166 38.3594 84.1166 36.7812C84.1166 34.8281 85.8666 33.5312 88.1478 33.5312C90.4447 33.5312 92.0541 34.8438 92.1009 36.6719H90.4291ZM93.6403 48.1875V36.5156H95.2653V37.8906H95.4059C95.7028 37.3594 96.2809 36.4062 97.8434 36.4062C99.8903 36.4062 101.406 38.0156 101.406 40.7812C101.406 43.5156 99.9216 45.1719 97.8591 45.1719C96.3122 45.1719 95.7028 44.2344 95.4059 43.6719H95.3122V48.1875H93.6403ZM95.2809 40.75C95.2809 42.5312 96.0622 43.75 97.4841 43.75C98.9528 43.75 99.7184 42.4531 99.7184 40.75C99.7184 39.0781 98.9684 37.8281 97.4841 37.8281C96.0466 37.8281 95.2809 38.9844 95.2809 40.75ZM102.742 45V36.5156H104.414V45H102.742ZM103.586 35.2031C103.008 35.2031 102.523 34.7656 102.523 34.2188C102.523 33.6719 103.008 33.2344 103.586 33.2344C104.148 33.2344 104.633 33.6719 104.633 34.2188C104.633 34.7656 104.148 35.2031 103.586 35.2031ZM107.797 39.9688V45H106.125V36.5156H107.735V37.9062H107.828C108.235 37 109.063 36.4062 110.328 36.4062C112.078 36.4062 113.219 37.5 113.219 39.6094V45H111.563V39.8125C111.563 38.5781 110.891 37.8438 109.766 37.8438C108.625 37.8438 107.797 38.6094 107.797 39.9688ZM118.587 45.1719C116.087 45.1719 114.555 43.4531 114.555 40.8125C114.555 38.2031 116.118 36.4062 118.477 36.4062C120.415 36.4062 122.243 37.6094 122.243 40.6719V41.2656H116.212C116.258 42.875 117.204 43.7969 118.602 43.7969C119.555 43.7969 120.165 43.3906 120.446 42.875H122.133C121.758 44.25 120.446 45.1719 118.587 45.1719ZM116.227 40.0156H120.602C120.602 38.7188 119.774 37.7812 118.493 37.7812C117.157 37.7812 116.29 38.8125 116.227 40.0156Z" fill="#5A7EE9"/>
<path d="M155.391 45L152.25 33.6875H154.062L156.266 42.4375H156.359L158.656 33.6875H160.438L162.734 42.4375H162.828L165.031 33.6875H166.844L163.703 45H161.969L159.594 36.5469H159.5L157.125 45H155.391ZM167.789 45V36.5156H169.461V45H167.789ZM168.633 35.2031C168.055 35.2031 167.571 34.7656 167.571 34.2188C167.571 33.6719 168.055 33.2344 168.633 33.2344C169.196 33.2344 169.68 33.6719 169.68 34.2188C169.68 34.7656 169.196 35.2031 168.633 35.2031ZM174.344 45.1719C172.298 45.1719 170.798 43.5156 170.798 40.7812C170.798 38.0156 172.313 36.4062 174.36 36.4062C175.938 36.4062 176.516 37.3594 176.813 37.8906H176.891V33.6875H178.563V45H176.938V43.6719H176.813C176.501 44.2344 175.891 45.1719 174.344 45.1719ZM174.719 43.75C176.141 43.75 176.938 42.5312 176.938 40.75C176.938 38.9844 176.157 37.8281 174.719 37.8281C173.235 37.8281 172.501 39.0781 172.501 40.75C172.501 42.4531 173.266 43.75 174.719 43.75ZM184.384 36.5156V37.8438H182.649V42.5C182.649 43.4531 183.134 43.625 183.665 43.6406C183.899 43.6406 184.274 43.6094 184.509 43.5938V45.0469C184.274 45.0781 183.915 45.1094 183.462 45.1094C182.149 45.1094 180.978 44.3906 180.993 42.8438V37.8438H179.743V36.5156H180.993V34.4844H182.649V36.5156H184.384ZM187.548 39.9688V45H185.876V33.6875H187.517V37.9062H187.626C188.033 36.9844 188.814 36.4062 190.142 36.4062C191.892 36.4062 193.048 37.4844 193.048 39.6094V45H191.376V39.8125C191.376 38.5625 190.704 37.8438 189.579 37.8438C188.408 37.8438 187.548 38.6094 187.548 39.9688Z" fill="#999999"/>
<path d="M264.156 167V155.688H265.875V160.594H271.5V155.688H273.219V167H271.5V162.062H265.875V167H264.156ZM278.727 167.172C276.227 167.172 274.696 165.453 274.696 162.812C274.696 160.203 276.258 158.406 278.618 158.406C280.555 158.406 282.383 159.609 282.383 162.672V163.266H276.352C276.399 164.875 277.344 165.797 278.743 165.797C279.696 165.797 280.305 165.391 280.586 164.875H282.274C281.899 166.25 280.586 167.172 278.727 167.172ZM276.368 162.016H280.743C280.743 160.719 279.914 159.781 278.633 159.781C277.297 159.781 276.43 160.812 276.368 162.016ZM283.719 167V158.516H285.391V167H283.719ZM284.563 157.203C283.985 157.203 283.501 156.766 283.501 156.219C283.501 155.672 283.985 155.234 284.563 155.234C285.126 155.234 285.61 155.672 285.61 156.219C285.61 156.766 285.126 157.203 284.563 157.203ZM290.665 170.359C288.524 170.359 287.118 169.406 286.962 167.828H288.665C288.821 168.625 289.571 169.016 290.681 169.016C292.009 169.016 292.853 168.453 292.853 167.125V165.453H292.743C292.446 166 291.837 166.875 290.274 166.875C288.274 166.875 286.728 165.375 286.728 162.672C286.728 159.969 288.243 158.406 290.29 158.406C291.868 158.406 292.446 159.359 292.759 159.891H292.868V158.516H294.493V167.188C294.493 169.359 292.853 170.359 290.665 170.359ZM290.649 165.5C292.071 165.5 292.868 164.453 292.868 162.703C292.868 160.984 292.087 159.828 290.649 159.828C289.165 159.828 288.431 161.078 288.431 162.703C288.431 164.359 289.196 165.5 290.649 165.5ZM297.876 161.969V167H296.204V155.688H297.845V159.906H297.954C298.361 158.984 299.142 158.406 300.47 158.406C302.22 158.406 303.376 159.484 303.376 161.609V167H301.704V161.812C301.704 160.562 301.033 159.844 299.908 159.844C298.736 159.844 297.876 160.609 297.876 161.969ZM309.041 158.516V159.844H307.306V164.5C307.306 165.453 307.791 165.625 308.322 165.641C308.556 165.641 308.931 165.609 309.166 165.594V167.047C308.931 167.078 308.572 167.109 308.119 167.109C306.806 167.109 305.634 166.391 305.65 164.844V159.844H304.4V158.516H305.65V156.484H307.306V158.516H309.041Z" fill="#999999"/>
<path d="M124.016 269.625V271.062H119V269.625H124.016ZM129.438 276V264.688H133.469C136.094 264.688 137.391 266.266 137.391 268.359C137.391 270.438 136.094 272.031 133.469 272.031H131.157V276H129.438ZM131.157 270.562H133.297C134.969 270.562 135.657 269.625 135.657 268.359C135.657 267.078 134.969 266.156 133.297 266.156H131.157V270.562ZM142.228 276.172C139.821 276.172 138.259 274.422 138.259 271.797C138.259 269.156 139.821 267.406 142.228 267.406C144.618 267.406 146.181 269.156 146.181 271.797C146.181 274.422 144.618 276.172 142.228 276.172ZM142.228 274.781C143.759 274.781 144.493 273.422 144.493 271.797C144.493 270.172 143.759 268.781 142.228 268.781C140.665 268.781 139.931 270.172 139.931 271.797C139.931 273.422 140.665 274.781 142.228 274.781ZM147.501 276V267.516H149.111V268.859H149.204C149.517 267.953 150.361 267.391 151.361 267.391C151.564 267.391 151.892 267.406 152.064 267.422V269.016C151.923 268.984 151.532 268.922 151.189 268.922C150.032 268.922 149.173 269.719 149.173 270.828V276H147.501ZM157.463 267.516V268.844H155.728V273.5C155.728 274.453 156.213 274.625 156.744 274.641C156.978 274.641 157.353 274.609 157.588 274.594V276.047C157.353 276.078 156.994 276.109 156.541 276.109C155.228 276.109 154.056 275.391 154.072 273.844V268.844H152.822V267.516H154.072V265.484H155.728V267.516H157.463ZM158.768 276V267.516H160.377V268.859H160.471C160.783 267.953 161.627 267.391 162.627 267.391C162.83 267.391 163.158 267.406 163.33 267.422V269.016C163.189 268.984 162.799 268.922 162.455 268.922C161.299 268.922 160.439 269.719 160.439 270.828V276H158.768ZM163.776 273.609C163.776 271.672 165.416 271.172 166.947 271.062C167.51 271.023 168.783 270.953 169.182 270.938L169.166 270.266C169.166 269.312 168.588 268.75 167.447 268.75C166.463 268.75 165.869 269.203 165.697 269.828H164.041C164.197 268.422 165.51 267.406 167.51 267.406C168.854 267.406 170.838 267.906 170.838 270.359V276H169.213V274.844H169.151C168.822 275.484 168.041 276.188 166.635 276.188C165.026 276.188 163.776 275.266 163.776 273.609ZM165.401 273.625C165.401 274.438 166.072 274.859 167.01 274.859C168.369 274.859 169.182 273.953 169.182 272.938V272.156C168.791 272.188 167.572 272.273 167.182 272.297C166.088 272.375 165.401 272.781 165.401 273.625ZM172.534 276V267.516H174.206V276H172.534ZM173.377 266.203C172.799 266.203 172.315 265.766 172.315 265.219C172.315 264.672 172.799 264.234 173.377 264.234C173.94 264.234 174.424 264.672 174.424 265.219C174.424 265.766 173.94 266.203 173.377 266.203ZM179.886 267.516V268.844H178.151V273.5C178.151 274.453 178.636 274.625 179.167 274.641C179.401 274.641 179.776 274.609 180.011 274.594V276.047C179.776 276.078 179.417 276.109 178.964 276.109C177.651 276.109 176.479 275.391 176.495 273.844V268.844H175.245V267.516H176.495V265.484H178.151V267.516H179.886ZM184.355 266.172V264.688H193.121V266.172H189.605V276H187.886V266.172H184.355ZM194.473 279.188C194.129 279.188 193.801 279.172 193.582 279.141V277.75C193.769 277.766 194.098 277.781 194.332 277.781C194.848 277.781 195.285 277.734 195.676 276.672L195.879 276.109L192.769 267.516H194.551L196.691 274.094H196.785L198.926 267.516H200.723L197.223 277.125C196.738 278.469 195.863 279.188 194.473 279.188ZM201.762 279.188V267.516H203.387V268.891H203.527C203.824 268.359 204.402 267.406 205.965 267.406C208.012 267.406 209.527 269.016 209.527 271.781C209.527 274.516 208.043 276.172 205.981 276.172C204.434 276.172 203.824 275.234 203.527 274.672H203.434V279.188H201.762ZM203.402 271.75C203.402 273.531 204.184 274.75 205.606 274.75C207.074 274.75 207.84 273.453 207.84 271.75C207.84 270.078 207.09 268.828 205.606 268.828C204.168 268.828 203.402 269.984 203.402 271.75ZM214.52 276.172C212.02 276.172 210.489 274.453 210.489 271.812C210.489 269.203 212.051 267.406 214.411 267.406C216.348 267.406 218.176 268.609 218.176 271.672V272.266H212.145C212.192 273.875 213.137 274.797 214.536 274.797C215.489 274.797 216.098 274.391 216.379 273.875H218.067C217.692 275.25 216.379 276.172 214.52 276.172ZM212.161 271.016H216.536C216.536 269.719 215.707 268.781 214.426 268.781C213.09 268.781 212.223 269.812 212.161 271.016ZM228.099 270.5V271.938H223.083V270.5H228.099Z" fill="black"/>
<g filter="url(#filter0_d_43_5097)">
<mask id="path-5-inside-1_43_5097" fill="white">
<path d="M103 57H243V246H103V57Z"/>
</mask>
<path d="M103 57H243V246H103V57Z" fill="#C1CCEF"/>
<path d="M103 246H106V57H103H100V246H103Z" fill="#5A7EE9" mask="url(#path-5-inside-1_43_5097)"/>
</g>
<path d="M65.4291 335.672C65.3197 334.625 64.3978 334.016 63.1009 334.016C61.7103 334.016 60.8353 334.719 60.8353 335.688C60.8353 336.766 62.0072 337.172 62.8978 337.391L63.9916 337.688C65.4447 338.031 67.2416 338.828 67.2572 340.875C67.2416 342.781 65.7259 344.188 63.0541 344.188C60.5228 344.188 58.9291 342.922 58.8197 340.859H60.5384C60.6478 342.094 61.7259 342.688 63.0541 342.688C64.4916 342.688 65.5384 341.953 65.5541 340.844C65.5384 339.859 64.6166 339.453 63.4134 339.141L62.0697 338.781C60.2572 338.281 59.1166 337.359 59.1166 335.781C59.1166 333.828 60.8666 332.531 63.1478 332.531C65.4447 332.531 67.0541 333.844 67.1009 335.672H65.4291ZM68.6403 347.188V335.516H70.2653V336.891H70.4059C70.7028 336.359 71.2809 335.406 72.8434 335.406C74.8903 335.406 76.4059 337.016 76.4059 339.781C76.4059 342.516 74.9216 344.172 72.8591 344.172C71.3122 344.172 70.7028 343.234 70.4059 342.672H70.3122V347.188H68.6403ZM70.2809 339.75C70.2809 341.531 71.0622 342.75 72.4841 342.75C73.9528 342.75 74.7184 341.453 74.7184 339.75C74.7184 338.078 73.9684 336.828 72.4841 336.828C71.0466 336.828 70.2809 337.984 70.2809 339.75ZM77.7422 344V335.516H79.4141V344H77.7422ZM78.5859 334.203C78.0078 334.203 77.5234 333.766 77.5234 333.219C77.5234 332.672 78.0078 332.234 78.5859 332.234C79.1484 332.234 79.6328 332.672 79.6328 333.219C79.6328 333.766 79.1484 334.203 78.5859 334.203ZM82.7972 338.969V344H81.1253V335.516H82.7347V336.906H82.8284C83.2347 336 84.0628 335.406 85.3284 335.406C87.0784 335.406 88.2191 336.5 88.2191 338.609V344H86.5628V338.812C86.5628 337.578 85.8909 336.844 84.7659 336.844C83.6253 336.844 82.7972 337.609 82.7972 338.969ZM93.5866 344.172C91.0866 344.172 89.5553 342.453 89.5553 339.812C89.5553 337.203 91.1178 335.406 93.4772 335.406C95.4147 335.406 97.2428 336.609 97.2428 339.672V340.266H91.2116C91.2584 341.875 92.2037 342.797 93.6022 342.797C94.5553 342.797 95.1647 342.391 95.4459 341.875H97.1334C96.7584 343.25 95.4459 344.172 93.5866 344.172ZM91.2272 339.016H95.6022C95.6022 337.719 94.7741 336.781 93.4928 336.781C92.1569 336.781 91.2897 337.812 91.2272 339.016Z" fill="#5A7EE9"/>
<path d="M154.391 344L151.25 332.688H153.062L155.266 341.438H155.359L157.656 332.688H159.438L161.734 341.438H161.828L164.031 332.688H165.844L162.703 344H160.969L158.594 335.547H158.5L156.125 344H154.391ZM166.789 344V335.516H168.461V344H166.789ZM167.633 334.203C167.055 334.203 166.571 333.766 166.571 333.219C166.571 332.672 167.055 332.234 167.633 332.234C168.196 332.234 168.68 332.672 168.68 333.219C168.68 333.766 168.196 334.203 167.633 334.203ZM173.344 344.172C171.298 344.172 169.798 342.516 169.798 339.781C169.798 337.016 171.313 335.406 173.36 335.406C174.938 335.406 175.516 336.359 175.813 336.891H175.891V332.688H177.563V344H175.938V342.672H175.813C175.501 343.234 174.891 344.172 173.344 344.172ZM173.719 342.75C175.141 342.75 175.938 341.531 175.938 339.75C175.938 337.984 175.157 336.828 173.719 336.828C172.235 336.828 171.501 338.078 171.501 339.75C171.501 341.453 172.266 342.75 173.719 342.75ZM183.384 335.516V336.844H181.649V341.5C181.649 342.453 182.134 342.625 182.665 342.641C182.899 342.641 183.274 342.609 183.509 342.594V344.047C183.274 344.078 182.915 344.109 182.462 344.109C181.149 344.109 179.978 343.391 179.993 341.844V336.844H178.743V335.516H179.993V333.484H181.649V335.516H183.384ZM186.548 338.969V344H184.876V332.688H186.517V336.906H186.626C187.033 335.984 187.814 335.406 189.142 335.406C190.892 335.406 192.048 336.484 192.048 338.609V344H190.376V338.812C190.376 337.562 189.704 336.844 188.579 336.844C187.408 336.844 186.548 337.609 186.548 338.969Z" fill="#999999"/>
<path d="M289.156 432V420.688H290.875V425.594H296.5V420.688H298.219V432H296.5V427.062H290.875V432H289.156ZM303.727 432.172C301.227 432.172 299.696 430.453 299.696 427.812C299.696 425.203 301.258 423.406 303.618 423.406C305.555 423.406 307.383 424.609 307.383 427.672V428.266H301.352C301.399 429.875 302.344 430.797 303.743 430.797C304.696 430.797 305.305 430.391 305.586 429.875H307.274C306.899 431.25 305.586 432.172 303.727 432.172ZM301.368 427.016H305.743C305.743 425.719 304.914 424.781 303.633 424.781C302.297 424.781 301.43 425.812 301.368 427.016ZM308.719 432V423.516H310.391V432H308.719ZM309.563 422.203C308.985 422.203 308.501 421.766 308.501 421.219C308.501 420.672 308.985 420.234 309.563 420.234C310.126 420.234 310.61 420.672 310.61 421.219C310.61 421.766 310.126 422.203 309.563 422.203ZM315.665 435.359C313.524 435.359 312.118 434.406 311.962 432.828H313.665C313.821 433.625 314.571 434.016 315.681 434.016C317.009 434.016 317.853 433.453 317.853 432.125V430.453H317.743C317.446 431 316.837 431.875 315.274 431.875C313.274 431.875 311.728 430.375 311.728 427.672C311.728 424.969 313.243 423.406 315.29 423.406C316.868 423.406 317.446 424.359 317.759 424.891H317.868V423.516H319.493V432.188C319.493 434.359 317.853 435.359 315.665 435.359ZM315.649 430.5C317.071 430.5 317.868 429.453 317.868 427.703C317.868 425.984 317.087 424.828 315.649 424.828C314.165 424.828 313.431 426.078 313.431 427.703C313.431 429.359 314.196 430.5 315.649 430.5ZM322.876 426.969V432H321.204V420.688H322.845V424.906H322.954C323.361 423.984 324.142 423.406 325.47 423.406C327.22 423.406 328.376 424.484 328.376 426.609V432H326.704V426.812C326.704 425.562 326.033 424.844 324.908 424.844C323.736 424.844 322.876 425.609 322.876 426.969ZM334.041 423.516V424.844H332.306V429.5C332.306 430.453 332.791 430.625 333.322 430.641C333.556 430.641 333.931 430.609 334.166 430.594V432.047C333.931 432.078 333.572 432.109 333.119 432.109C331.806 432.109 330.634 431.391 330.65 429.844V424.844H329.4V423.516H330.65V421.484H332.306V423.516H334.041Z" fill="#999999"/>
<path d="M107.016 519.625V521.062H102V519.625H107.016ZM112.438 526V514.688H114.157V524.516H119.266V526H112.438ZM120.181 523.609C120.181 521.672 121.821 521.172 123.353 521.062C123.915 521.023 125.188 520.953 125.587 520.938L125.571 520.266C125.571 519.312 124.993 518.75 123.853 518.75C122.868 518.75 122.274 519.203 122.103 519.828H120.446C120.603 518.422 121.915 517.406 123.915 517.406C125.259 517.406 127.243 517.906 127.243 520.359V526H125.618V524.844H125.556C125.228 525.484 124.446 526.188 123.04 526.188C121.431 526.188 120.181 525.266 120.181 523.609ZM121.806 523.625C121.806 524.438 122.478 524.859 123.415 524.859C124.774 524.859 125.587 523.953 125.587 522.938V522.156C125.196 522.188 123.978 522.273 123.587 522.297C122.493 522.375 121.806 522.781 121.806 523.625ZM130.611 520.969V526H128.939V517.516H130.548V518.906H130.642C131.048 518 131.876 517.406 133.142 517.406C134.892 517.406 136.032 518.5 136.032 520.609V526H134.376V520.812C134.376 519.578 133.704 518.844 132.579 518.844C131.439 518.844 130.611 519.609 130.611 520.969ZM140.916 526.172C138.869 526.172 137.369 524.516 137.369 521.781C137.369 519.016 138.884 517.406 140.931 517.406C142.509 517.406 143.088 518.359 143.384 518.891H143.463V514.688H145.134V526H143.509V524.672H143.384C143.072 525.234 142.463 526.172 140.916 526.172ZM141.291 524.75C142.713 524.75 143.509 523.531 143.509 521.75C143.509 519.984 142.728 518.828 141.291 518.828C139.806 518.828 139.072 520.078 139.072 521.75C139.072 523.453 139.838 524.75 141.291 524.75ZM151.752 519.828C151.596 519.156 151.064 518.719 150.143 518.719C149.189 518.719 148.502 519.219 148.518 519.859C148.502 520.359 148.908 520.719 149.846 520.938L151.189 521.25C152.752 521.594 153.502 522.344 153.518 523.547C153.502 525.078 152.221 526.172 150.049 526.172C148.018 526.172 146.799 525.266 146.596 523.688H148.299C148.439 524.453 149.033 524.828 150.033 524.828C151.111 524.828 151.799 524.391 151.814 523.672C151.799 523.125 151.393 522.766 150.502 522.562L149.174 522.281C147.643 521.938 146.846 521.125 146.846 519.953C146.846 518.438 148.158 517.406 150.127 517.406C152.018 517.406 153.189 518.375 153.361 519.828H151.752ZM158.416 526.172C155.947 526.172 154.447 524.344 154.447 521.797C154.447 519.203 155.994 517.406 158.385 517.406C160.322 517.406 161.729 518.547 161.901 520.266H160.276C160.104 519.469 159.463 518.797 158.416 518.797C157.041 518.797 156.119 519.938 156.119 521.75C156.119 523.609 157.026 524.75 158.416 524.75C159.354 524.75 160.072 524.234 160.276 523.312H161.901C161.713 524.953 160.416 526.172 158.416 526.172ZM163.159 526V517.516H164.768V518.859H164.862C165.174 517.953 166.018 517.391 167.018 517.391C167.221 517.391 167.549 517.406 167.721 517.422V519.016C167.581 518.984 167.19 518.922 166.846 518.922C165.69 518.922 164.831 519.719 164.831 520.828V526H163.159ZM168.167 523.609C168.167 521.672 169.808 521.172 171.339 521.062C171.901 521.023 173.175 520.953 173.573 520.938L173.558 520.266C173.558 519.312 172.979 518.75 171.839 518.75C170.854 518.75 170.261 519.203 170.089 519.828H168.433C168.589 518.422 169.901 517.406 171.901 517.406C173.245 517.406 175.229 517.906 175.229 520.359V526H173.604V524.844H173.542C173.214 525.484 172.433 526.188 171.026 526.188C169.417 526.188 168.167 525.266 168.167 523.609ZM169.792 523.625C169.792 524.438 170.464 524.859 171.401 524.859C172.761 524.859 173.573 523.953 173.573 522.938V522.156C173.183 522.188 171.964 522.273 171.573 522.297C170.479 522.375 169.792 522.781 169.792 523.625ZM176.925 529.188V517.516H178.55V518.891H178.691C178.988 518.359 179.566 517.406 181.128 517.406C183.175 517.406 184.691 519.016 184.691 521.781C184.691 524.516 183.206 526.172 181.144 526.172C179.597 526.172 178.988 525.234 178.691 524.672H178.597V529.188H176.925ZM178.566 521.75C178.566 523.531 179.347 524.75 180.769 524.75C182.238 524.75 183.003 523.453 183.003 521.75C183.003 520.078 182.253 518.828 180.769 518.828C179.331 518.828 178.566 519.984 178.566 521.75ZM189.683 526.172C187.183 526.172 185.652 524.453 185.652 521.812C185.652 519.203 187.214 517.406 189.574 517.406C191.511 517.406 193.339 518.609 193.339 521.672V522.266H187.308C187.355 523.875 188.3 524.797 189.699 524.797C190.652 524.797 191.261 524.391 191.543 523.875H193.23C192.855 525.25 191.543 526.172 189.683 526.172ZM187.324 521.016H191.699C191.699 519.719 190.871 518.781 189.589 518.781C188.253 518.781 187.386 519.812 187.324 521.016ZM197.84 516.172V514.688H206.606V516.172H203.09V526H201.371V516.172H197.84ZM207.957 529.188C207.614 529.188 207.286 529.172 207.067 529.141V527.75C207.254 527.766 207.582 527.781 207.817 527.781C208.332 527.781 208.77 527.734 209.161 526.672L209.364 526.109L206.254 517.516H208.036L210.176 524.094H210.27L212.411 517.516H214.207L210.707 527.125C210.223 528.469 209.348 529.188 207.957 529.188ZM215.247 529.188V517.516H216.872V518.891H217.012C217.309 518.359 217.887 517.406 219.45 517.406C221.497 517.406 223.012 519.016 223.012 521.781C223.012 524.516 221.528 526.172 219.466 526.172C217.919 526.172 217.309 525.234 217.012 524.672H216.919V529.188H215.247ZM216.887 521.75C216.887 523.531 217.669 524.75 219.091 524.75C220.559 524.75 221.325 523.453 221.325 521.75C221.325 520.078 220.575 518.828 219.091 518.828C217.653 518.828 216.887 519.984 216.887 521.75ZM228.005 526.172C225.505 526.172 223.974 524.453 223.974 521.812C223.974 519.203 225.536 517.406 227.896 517.406C229.833 517.406 231.661 518.609 231.661 521.672V522.266H225.63C225.677 523.875 226.622 524.797 228.021 524.797C228.974 524.797 229.583 524.391 229.864 523.875H231.552C231.177 525.25 229.864 526.172 228.005 526.172ZM225.646 521.016H230.021C230.021 519.719 229.192 518.781 227.911 518.781C226.575 518.781 225.708 519.812 225.646 521.016ZM241.584 520.5V521.938H236.568V520.5H241.584Z" fill="black"/>
<g filter="url(#filter1_d_43_5097)">
<mask id="path-11-inside-2_43_5097" fill="white">
<path d="M267 356L267 496L78 496L78 356L267 356Z"/>
</mask>
<path d="M267 356L267 496L78 496L78 356L267 356Z" fill="#C1CCEF"/>
<path d="M78 496L81 496L81 356L78 356L75 356L75 496L78 496Z" fill="#5A7EE9" mask="url(#path-11-inside-2_43_5097)"/>
</g>
<defs>
<filter id="filter0_d_43_5097" x="103" y="57" width="152" height="201" filterUnits="userSpaceOnUse" color-interpolation-filters="sRGB">
<feFlood flood-opacity="0" result="BackgroundImageFix"/>
<feColorMatrix in="SourceAlpha" type="matrix" values="0 0 0 0 0 0 0 0 0 0 0 0 0 0 0 0 0 0 127 0" result="hardAlpha"/>
<feOffset dx="8" dy="8"/>
<feGaussianBlur stdDeviation="2"/>
<feComposite in2="hardAlpha" operator="out"/>
<feColorMatrix type="matrix" values="0 0 0 0 0 0 0 0 0 0 0 0 0 0 0 0 0 0 0.1 0"/>
<feBlend mode="normal" in2="BackgroundImageFix" result="effect1_dropShadow_43_5097"/>
<feBlend mode="normal" in="SourceGraphic" in2="effect1_dropShadow_43_5097" result="shape"/>
</filter>
<filter id="filter1_d_43_5097" x="78" y="356" width="201" height="152" filterUnits="userSpaceOnUse" color-interpolation-filters="sRGB">
<feFlood flood-opacity="0" result="BackgroundImageFix"/>
<feColorMatrix in="SourceAlpha" type="matrix" values="0 0 0 0 0 0 0 0 0 0 0 0 0 0 0 0 0 0 127 0" result="hardAlpha"/>
<feOffset dx="8" dy="8"/>
<feGaussianBlur stdDeviation="2"/>
<feComposite in2="hardAlpha" operator="out"/>
<feColorMatrix type="matrix" values="0 0 0 0 0 0 0 0 0 0 0 0 0 0 0 0 0 0 0.1 0"/>
<feBlend mode="normal" in2="BackgroundImageFix" result="effect1_dropShadow_43_5097"/>
<feBlend mode="normal" in="SourceGraphic" in2="effect1_dropShadow_43_5097" result="shape"/>
</filter>
</defs>
</svg>
